<?xml version="1.0" encoding="UTF-8"?>
<svg width="150px" height="50px" viewBox="0 0 150 50" version="1.1" xmlns="http://www.w3.org/2000/svg" xmlns:xlink="http://www.w3.org/1999/xlink">
    <title>doodle</title>
    <defs>
        <rect id="path-1" x="0" y="0" width="150" height="50"></rect>
        <filter id="filter-3">
            <feColorMatrix in="SourceGraphic" type="matrix" values="0 0 0 0 0.941176 0 0 0 0 0.749020 0 0 0 0 0.431373 0 0 0 1.000000 0"></feColorMatrix>
        </filter>
    </defs>
    <g id="doodle" stroke="none" stroke-width="1" fill="none" fill-rule="evenodd">
        <g>
            <mask id="mask-2" fill="white">
                <use xlink:href="data:image/png;base64"></use>
            </mask>
            <g id="Mask"></g>
            <g id="book" mask="url(#mask-2)">
                <g transform="translate(37.500000, 11.500000) rotate(-13.000000) translate(-37.500000, -11.500000) translate(29.000000, 1.000000)">
                    <polygon id="Book-Cover" fill="#FFD767" points="4.60379171 20.7302133 0.482401864 5.05455049 0 2.99089523 0.814839671 2.57254454 2.17185709 2.36336919 7.41745301 1.10727645 10.7019805 0.328852781 11.9383974 -2.47801781e-14 12.1785497 0.15818235 14.8800001 11.8751237 16.7400001 16.7400001 13.0200001 17.6700001"></polygon>
                    <polygon id="Spine" fill="#C69259" points="4.60379171 19.8002132 0.93642284 7.42940956 0 3.03145515 0.814782247 2.62248506 2.17170403 2.41800002 7.44000006 20.0116998 6.78822579 20.3181299"></polygon>
                    <polygon id="Book-Line-2" fill="#825445" points="4.83984791 4.16443858 5.26985667 5.58850109 5.49480042 5.79356609 11.4092517 4.54764085 11.6331492 4.16443858 11.0472492 2.72173379 10.6329342 2.60366607 5.01143291 3.86512653"></polygon>
                    <polygon id="Book-Line-1" fill="#825445" points="6.9598643 6.80118094 7.27060056 7.70636685 11.4953581 6.80118094 11.1333556 5.79346252 8.59829182 6.37448003"></polygon>
                </g>
            </g>
            <g id="Wordmark" mask="url(#mask-2)">
                <g transform="translate(5.000000, 12.000000)" id="Group-19">
                    <g transform="translate(0.000000, 0.500000)">
                        <path d="M7.34415323,6.70621016 C2.94353526,6.70621016 0.680274653,10.1275033 0.680274653,14.1103432 C0.680274653,18.1721657 2.92255138,21.3333944 7.07436057,21.3333944 C11.4539947,21.3333944 13.8421593,18.0719927 13.8421593,14.1103432 C13.8831278,10.3278493 11.6198672,6.70621016 7.34415323,6.70621016 L7.34415323,6.70621016 Z M13.8831278,17.3515177 L13.8201762,17.3515177 C13.1357022,20.2526818 10.043079,21.9536964 7.13631296,21.9536964 C2.38296607,21.9536964 0.037768442,18.31183 0.037768442,14.1103432 C0.037768442,9.70754731 2.5488386,6.06568088 7.34415323,6.06568088 C10.5826643,6.06568088 13.1357022,8.14716022 13.8001915,10.8287143 L13.8621439,10.8287143 L13.8621439,6.44614564 L14.5266332,6.44614564 L14.5266332,22.3139339 C14.5266332,26.7764484 11.8696752,28.8771918 7.44807336,28.8771918 C4.001722,28.8771918 1.05398744,27.3765232 0.95106654,23.7144295 L1.61555586,23.7144295 C1.73946063,26.9758312 4.33446628,28.2376257 7.40610562,28.2376257 C11.5169463,28.2376257 13.8621439,26.3564924 13.8621439,22.2946699 L13.8621439,17.3515177 L13.8831278,17.3515177 Z" id="Fill-1" fill="#3A2110"></path>
                        <path d="M24.0754946,22.594322 C28.6010166,22.594322 31.0501343,18.7925641 31.0501343,14.6498326 C31.0501343,10.5677829 28.6010166,6.70630648 24.0754946,6.70630648 C19.4680356,6.70630648 17.0598863,10.5677829 17.0598863,14.6498326 C17.0598863,18.7925641 19.4680356,22.594322 24.0754946,22.594322 M24.0754946,6.0657772 C29.037681,6.0657772 31.7156229,10.1882814 31.7156229,14.6498326 C31.7156229,19.1528016 29.037681,23.2348513 24.0345261,23.2348513 C19.0733389,23.2348513 16.3744132,19.1528016 16.3744132,14.6498326 C16.3943978,10.1882814 19.0733389,6.0657772 24.0754946,6.0657772" id="Fill-3" fill="#3A2110"></path>
                        <path d="M40.4340225,22.594322 C44.9795291,22.594322 47.407663,18.7925641 47.407663,14.6498326 C47.407663,10.5677829 44.9585452,6.70630648 40.4340225,6.70630648 C35.8255643,6.70630648 33.4172802,10.5677829 33.4172802,14.6498326 C33.3964311,18.7925641 35.8255643,22.594322 40.4340225,22.594322 M40.4340225,6.0657772 C45.3952096,6.0657772 48.0731516,10.1882814 48.0731516,14.6498326 C48.0731516,19.1528016 45.3952096,23.2348513 40.3920547,23.2348513 C35.4308676,23.2348513 32.7529257,19.1528016 32.7529257,14.6498326 C32.7529257,10.1882814 35.4308676,6.0657772 40.4340225,6.0657772" id="Fill-5" fill="#3A2110"></path>
                        <path d="M56.3552864,6.70621016 C51.6848758,6.70621016 49.7753434,10.8884329 49.7753434,14.6901908 C49.7753434,18.8926407 51.9546685,22.5942257 56.3552864,22.5942257 C60.7359198,22.5942257 63.2469899,18.932132 63.2469899,14.6901908 C63.2270053,9.60737431 60.487111,6.70621016 56.3552864,6.70621016 L56.3552864,6.70621016 Z M63.2270053,0.0630065711 L63.8904954,0.0630065711 L63.8904954,22.8542902 L63.2270053,22.8542902 L63.2270053,18.2521115 L63.1640537,18.2521115 C62.3137072,21.1137843 59.8226217,23.234755 56.3552864,23.234755 C51.8507483,23.234755 49.110854,19.6323798 49.110854,14.6901908 C49.110854,10.0880121 51.6638919,6.06568088 56.3552864,6.06568088 C59.9675103,6.06568088 62.3746603,8.0874417 63.1640537,11.0483244 L63.2270053,11.0483244 L63.2270053,0.0630065711 Z" id="Fill-7" fill="#3A2110"></path>
                        <path d="M67.108822,6.3858492 L69.0183544,6.3858492 L69.0183544,10.2482889 L69.081306,10.2482889 C70.1394928,7.60718922 72.4637066,6.02561168 75.5373444,6.16527596 L75.5373444,8.16680953 C71.7582487,7.96646354 69.184227,10.6480177 69.184227,14.0702741 L69.184227,22.8546755 L67.0878381,22.8546755 L67.0878381,6.3858492 L67.108822,6.3858492 Z" id="Fill-9" fill="#3A2110"></path>
                        <path d="M88.3863694,13.4697177 C88.2824493,10.4481533 86.3309491,7.58648038 82.9475494,7.58648038 C79.5641496,7.58648038 77.6746018,10.4683805 77.3418575,13.4697177 L88.3863694,13.4697177 Z M77.3418575,15.150505 C77.3638406,18.0921236 78.9616127,21.6338171 82.967534,21.6338171 C86.0201879,21.6338171 87.6589285,19.9125752 88.324417,17.4313671 L90.4198067,17.4313671 C89.5284917,21.1734065 87.2652311,23.3348316 82.967534,23.3348316 C77.5496978,23.3348316 75.2664525,19.3125005 75.2664525,14.630376 C75.2664525,10.2882617 77.5496978,5.92592029 82.967534,5.92592029 C88.4693057,5.92592029 90.6486308,10.5483263 90.4827583,15.1707322 L77.3418575,15.1707322 L77.3418575,15.150505 Z" id="Fill-11" fill="#3A2110"></path>
                        <path d="M103.394335,13.8497971 L103.332383,13.8497971 C103.06259,14.3304349 102.128308,14.4903264 101.567739,14.5904994 C98.0174676,15.1905742 93.6178489,15.170347 93.6178489,18.3922573 C93.6178489,20.413055 95.4644297,21.653659 97.4169291,21.653659 C100.591489,21.653659 103.415319,19.7128072 103.373351,16.4908968 L103.373351,13.8497971 L103.394335,13.8497971 Z M92.2678863,11.4283075 C92.4547427,7.56683106 95.2775733,5.90530777 99.1805737,5.90530777 C102.190261,5.90530777 105.470739,6.80686476 105.470739,11.2086975 L105.470739,19.9526444 C105.470739,20.7126108 105.865436,21.1739845 106.695798,21.1739845 C106.923623,21.1739845 107.193416,21.1133027 107.359288,21.0535842 L107.359288,22.7343716 C106.902639,22.8345446 106.570894,22.8547718 105.989341,22.8547718 C103.871968,22.8547718 103.540223,21.7143407 103.540223,19.9728717 L103.477272,19.9728717 C102.024388,22.1140695 100.530536,23.3142191 97.2500574,23.3142191 C94.1154664,23.3142191 91.5204608,21.8145137 91.5204608,18.4924303 C91.5204608,13.8700244 96.1908714,13.7091697 100.696409,13.1890406 C102.418086,12.9896578 103.373351,12.7690846 103.373351,10.948633 C103.373351,8.22758757 101.359899,7.56683106 98.8897972,7.56683106 C96.3157754,7.56683106 94.3852591,8.72748937 94.3233067,11.4080803 L92.2678863,11.4080803 L92.2678863,11.4283075 Z" id="Fill-13" fill="#3A2110"></path>
                        <path d="M115.787211,21.6339134 C120.229797,21.6339134 121.7866,18.0315382 121.7866,14.610245 C121.7866,11.1879886 120.229797,7.5865767 115.787211,7.5865767 C111.822258,7.5865767 110.183518,11.1879886 110.183518,14.610245 C110.183518,18.0315382 111.802273,21.6339134 115.787211,21.6339134 L115.787211,21.6339134 Z M123.863004,22.8542902 L121.952473,22.8542902 L121.952473,19.7123256 L121.89052,19.7123256 C120.998206,21.8544866 118.278296,23.3147007 115.808195,23.3147007 C110.598199,23.3147007 108.128097,19.2721423 108.128097,14.610245 C108.128097,9.94834779 110.598199,5.90578937 115.808195,5.90578937 C118.361233,5.90578937 120.832334,7.14639343 121.723649,9.50816452 L121.7866,9.50816452 L121.7866,0.0630065711 L123.863004,0.0630065711 L123.863004,22.8542902 Z" id="Fill-15" fill="#3A2110"></path>
                        <path d="M137.23163,11.1882776 C137.12771,8.70706949 135.155226,7.58686566 132.768061,7.58686566 C130.92048,7.58686566 128.741155,8.28711345 128.741155,10.4283113 C128.741155,12.2092716 130.858528,12.8498009 132.290428,13.2100384 L135.07229,13.8101132 C137.460454,14.1703507 139.929557,15.5101646 139.929557,18.3718375 C139.929557,21.9539854 136.25538,23.3140265 133.079821,23.3140265 C129.114868,23.3140265 126.394958,21.5340293 126.063213,17.5116982 L128.138618,17.5116982 C128.304491,20.2134795 130.401879,21.6342023 133.182742,21.6342023 C135.134242,21.6342023 137.854152,20.8135543 137.854152,18.5124649 C137.854152,16.5908771 136.005572,15.9705751 134.118023,15.5101646 L131.439082,14.930317 C128.720171,14.2300692 126.664751,13.3294755 126.664751,10.5275211 C126.664751,7.18617367 130.069135,5.90607833 133.079821,5.90607833 C136.484205,5.90607833 139.203115,7.62635694 139.328019,11.2085049 L137.23163,11.2085049 L137.23163,11.1882776 Z" id="Fill-17" fill="#3A2110"></path>
                    </g>
                </g>
            </g>
            <g id="book-copy" mask="url(#mask-2)">
                <g transform="translate(76.000000, 43.000000) rotate(-300.000000) translate(-76.000000, -43.000000) translate(68.000000, 33.000000)">
                    <polygon id="Book-Cover" fill="#F0BF6E" points="4.27311048 19.2412031 0.447751895 4.69149215 0 2.77606515 0.756311353 2.38776376 2.0158569 2.19361307 6.88467207 1.02774298 9.93327845 0.305231938 11.080886 -2.30002671e-14 11.3037886 0.146820426 13.8111992 11.0221571 15.5375991 15.5375991 12.0847993 16.4007991"></polygon>
                    <polygon id="Spine" fill="#C69259" points="4.27311048 18.3780032 0.869161445 6.89576981 0 2.81371173 0.756258054 2.43411716 2.01571484 2.24431987 6.90559961 18.5742991 6.300641 18.8587189"></polygon>
                    <polygon id="Book-Line-2" fill="#825445" points="4.49221123 3.86531521 4.89133331 5.18709014 5.1001198 5.37742573 10.5897478 4.22099283 10.7975632 3.86531521 10.2537472 2.52623705 9.86919163 2.4166499 4.65147163 3.58750216"></polygon>
                    <polygon id="Book-Line-1" fill="#825445" points="6.45995105 6.3126656 6.74836774 7.15283381 10.6696693 6.3126656 10.3336687 5.3773296 7.98069357 5.91661377"></polygon>
                </g>
            </g>
            <g id="book-copy-2" mask="url(#mask-2)">
                <g transform="translate(111.000000, 10.000000) rotate(-34.000000) translate(-111.000000, -10.000000) translate(103.000000, 0.000000)">
                    <polygon id="Book-Cover" fill="#CF9D5C" points="4.27311048 19.2412031 0.447751895 4.69149215 0 2.77606515 0.756311353 2.38776376 2.0158569 2.19361307 6.88467207 1.02774298 9.93327845 0.305231938 11.080886 -2.30002671e-14 11.3037886 0.146820426 13.8111992 11.0221571 15.5375991 15.5375991 12.0847993 16.4007991"></polygon>
                    <polygon id="Spine" fill="#F0BF6E" points="4.27311048 18.3780032 0.869161445 6.89576981 0 2.81371173 0.756258054 2.43411716 2.01571484 2.24431987 6.90559961 18.5742991 6.300641 18.8587189"></polygon>
                    <polygon id="Book-Line-2" fill="#825445" points="4.49221123 3.86531521 4.89133331 5.18709014 5.1001198 5.37742573 10.5897478 4.22099283 10.7975632 3.86531521 10.2537472 2.52623705 9.86919163 2.4166499 4.65147163 3.58750216"></polygon>
                    <polygon id="Book-Line-1" fill="#825445" points="6.45995105 6.3126656 6.74836774 7.15283381 10.6696693 6.3126656 10.3336687 5.3773296 7.98069357 5.91661377"></polygon>
                </g>
            </g>
        </g>
        <g filter="url(#filter-3)" id="stars">
            <g transform="translate(17.000000, 0.000000)">
                <polygon id="Star-Bottom" fill="#FFD767" transform="translate(7.910375, 15.219417) rotate(42.000000) translate(-7.910375, -15.219417) " points="7.38795987 11 7.19375 14.6925161 5 14.487607 5 15.0589025 7.1375 15.5934479 7.38795987 19.4388343 8.36825 19.4388343 8.5055 15.3517888 10.82075 15.2393115 10.82075 14.7493115 8.238875 14.487607 8.17025 11.1199706"></polygon>
                <polygon id="Start-Left" fill="#FFD767" points="3.8391784 1 4.32 1.00812955 4.269375 4.56285682 5.742 2.92581136 6.07641247 3.22455233 5.124375 5.02835682 8.307 5.02835682 8.307 5.40587955 5.0805 5.77003864 6.53933878 7.84738806 6.202125 8.206675 4.1895 6.19210682 4.3245 10.7268341 3.8391784 10.7591295 3.497625 6.36583409 2.3445 7.68437955 1.90456667 7.40136713 3.119625 5.60744773 0 5.511675 0.0003375 5.02835682 3.198375 4.89360682 1.6584396 3.14545455 2.023875 2.84785682 3.601125 4.46374318"></polygon>
                <polygon id="Star-Right" fill="#FFD767" points="32.458375 1 32.458375 6.19177273 35.01325 4.1796242 35.67925 4.55584091 33.4843653 6.97157328 37.754875 7.4657 37.754875 8.26759091 33.139 8.16402273 35.2213338 10.866854 34.76575 11.1752955 32.458375 8.52706818 31.672 13.2511136 30.9288847 13.0861335 31.619125 8.4235 28.784125 9.14402273 28.5606759 8.4235 31.40875 7.28202273 28 6.65838636 28.1967047 5.77034163 31.40875 6.07405032 31.619125 1.00022273"></polygon>
                <polygon id="Star-Right-Copy" fill="#FFD767" points="107.458375 0 107.458375 5.19177273 110.01325 3.1796242 110.67925 3.55584091 108.484365 5.97157328 112.754875 6.4657 112.754875 7.26759091 108.139 7.16402273 110.221334 9.86685395 109.76575 10.1752955 107.458375 7.52706818 106.672 12.2511136 105.928885 12.0861335 106.619125 7.4235 103.784125 8.14402273 103.560676 7.4235 106.40875 6.28202273 103 5.65838636 103.196705 4.77034163 106.40875 5.07405032 106.619125 0.000222727273"></polygon>
                <polygon id="Star-Right-Copy-2" fill="#FFD767" points="43.6563257 38 43.6563257 42.2377966 45.7515857 40.5953756 46.2977742 40.9024634 44.4977432 42.8743106 48 43.2776427 48 43.932188 44.2145081 43.8476502 45.9222358 46.0538425 45.5486103 46.3056086 43.6563257 44.1439869 43.0114174 48 42.4019865 47.8653346 42.9680544 44.0594491 40.6430631 44.6475775 40.4598118 44.0594491 42.7955253 43.1277157 40 42.618671 40.1613181 41.8938024 42.7955253 42.1417054 42.9680544 38.0001818"></polygon>
                <polygon id="Fill-237" fill="#FFFFFF" points="76.8372093 36 76.6511628 39.3016449 80 39.3016449 76.9302326 40.3393807 78.6046512 43.3584906 76.372093 41.9431543 75.255814 46 74.6976744 41.8490566 72 41.8490566 74.9767442 40.245283 73.4883721 37.8867925 75.4418605 38.8299468"></polygon>
                <polygon id="Fill-237-Copy" fill="#FFFFFF" points="73.8372093 2 73.6511628 5.3016449 77 5.3016449 73.9302326 6.33938075 75.6046512 9.35849057 73.372093 7.94315433 72.255814 12 71.6976744 7.8490566 69 7.8490566 71.9767442 6.24528302 70.4883721 3.88679245 72.4418605 4.82994678"></polygon>
                <polygon id="Fill-1-Copy-4" fill="#FFFFFF" points="78.7513961 9.83801724 78.6430408 11.894569 78.6430408 12.4716523 77.393066 11.4689286 78.272764 12.668758 76.6506505 12.325431 76 12.1418103 77.393066 13.0428448 78.5168021 13.4406034 77.393066 14.9273219 78.7513961 13.9524403 79.3260942 17.8291379 79.6957466 18.6903448 79.4572612 15.1366379 79.5542737 13.9524403 80.9142308 15.3577877 79.9659166 13.7702413 82.2882388 13.4406034 81.7010981 13.2269828 79.8250663 13.0141369 80.9142308 11.6204371 79.4572612 12.668758 79.3605709 11.9493966 79.1441194 9.05923357 78.8994126 8"></polygon>
                <polygon id="Fill-1-Copy-5" fill="#FFFFFF" transform="translate(68.144119, 46.345172) rotate(60.000000) translate(-68.144119, -46.345172) " points="67.7513961 42.8380172 67.6430408 44.894569 67.6430408 45.4716523 66.393066 44.4689286 67.272764 45.668758 65.6506505 45.325431 65 45.1418103 66.393066 46.0428448 67.5168021 46.4406034 66.393066 47.9273219 67.7513961 46.9524403 68.3260942 50.8291379 68.6957466 51.6903448 68.4572612 48.1366379 68.5542737 46.9524403 69.9142308 48.3577877 68.9659166 46.7702413 71.2882388 46.4406034 70.7010981 46.2269828 68.8250663 46.0141369 69.9142308 44.6204371 68.4572612 45.668758 68.3605709 44.9493966 68.1441194 42.0592336 67.8994126 41"></polygon>
            </g>
        </g>
    </g>
</svg>